<svg width="519" height="208" viewBox="0 0 519 208" fill="none" xmlns="http://www.w3.org/2000/svg">
<path fill-rule="evenodd" clip-rule="evenodd" d="M382.833 65.5187C386.176 65.5421 389.204 65.3066 389.561 64.9879C390.968 63.7351 389.774 62.7066 387.578 63.2803C386.301 63.6202 383.787 63.8556 381.987 63.8078C380.191 63.7595 378.279 64.1152 377.737 64.5945C377.131 65.133 379.097 65.4873 382.833 65.5187Z" fill="#FFCD00"/>
<path fill-rule="evenodd" clip-rule="evenodd" d="M247.446 86.1561C247.53 86.629 249.138 86.7425 251.022 86.4103C252.906 86.0781 254.383 85.4205 254.3 84.9476C254.217 84.4772 252.604 84.3646 250.72 84.6968C248.836 85.029 247.363 85.6857 247.446 86.1561Z" fill="#FFCD00"/>
<path fill-rule="evenodd" clip-rule="evenodd" d="M334.588 81.0714C333.93 82.0108 335.112 83.0654 336.542 82.8134C337.224 82.6931 337.675 82.0167 337.55 81.3086C337.322 80.0164 335.433 79.8671 334.588 81.0714Z" fill="#FFCD00"/>
<path fill-rule="evenodd" clip-rule="evenodd" d="M424.632 57.1595C429.572 55.7075 431.75 54.3375 430.12 53.6923C429.685 53.5238 426.291 53.6346 422.58 53.9399C415.519 54.5187 414.602 55.2 417.841 57.4722C419.227 58.4429 420.458 58.3804 424.632 57.1595Z" fill="#FFCD00"/>
<path fill-rule="evenodd" clip-rule="evenodd" d="M327.625 82.6157C328 83.0345 328.839 83.2864 329.49 83.1716C330.139 83.0572 330.843 82.5333 331.052 82.0114C331.266 81.4701 330.464 81.2304 329.187 81.4555C327.908 81.6811 327.239 82.1801 327.625 82.6157Z" fill="#FFCD00"/>
<path fill-rule="evenodd" clip-rule="evenodd" d="M267.918 80.6625C267.207 81.2408 265.526 81.5561 264 81.3961C261.895 81.1729 260.858 81.593 259.127 83.3531C255.75 86.7785 257.78 87.1055 266.648 84.5665C271.01 83.3098 275.524 82.1167 276.677 81.9001C278.177 81.625 278.464 81.3026 277.685 80.7577C275.994 79.5689 269.332 79.5046 267.918 80.6625Z" fill="#FFCD00"/>
<path fill-rule="evenodd" clip-rule="evenodd" d="M363.07 65.7684C363.153 66.2414 364.185 66.4565 365.363 66.2487C366.539 66.0413 367.435 65.4863 367.352 65.0133C367.269 64.543 366.237 64.3279 365.061 64.5352C363.883 64.743 362.987 65.2981 363.07 65.7684Z" fill="#FFCD00"/>
<path fill-rule="evenodd" clip-rule="evenodd" d="M410.287 64.7733C413.71 64.4495 418.055 64.3069 419.947 64.4583C427.108 65.0396 436.862 65.1931 440.838 64.7877C443.112 64.5654 445.514 64.6615 446.177 65.0107C446.84 65.3549 448.101 65.7615 448.977 65.9134C449.853 66.0575 450.682 66.8146 450.817 67.5822C450.999 68.6134 451.433 68.734 452.443 68.0389C455.07 66.2195 459.146 66.1829 465.306 67.9187C468.708 68.8803 471.561 70.0375 471.642 70.4949C471.722 70.9523 472.365 71.2255 473.073 71.1006C473.778 70.9762 474.255 70.2952 474.13 69.5871C473.844 67.9667 474.773 67.7923 477.173 69.024C478.236 69.5667 478.593 70.0819 477.991 70.2041C477.404 70.3209 477.035 71.0414 477.169 71.7986C477.365 72.9099 476.815 73.1748 474.385 73.1502C469.902 73.0986 470.039 74.7347 474.705 77.003C479.126 79.1494 482.567 78.8651 481.696 76.4231C480.934 74.2631 483.9 74.0946 487.284 76.1014C490.747 78.1554 492.397 78.0191 491.99 75.7112C491.824 74.7679 491.303 74.0683 490.833 74.1512C490.36 74.2346 489.906 73.9148 489.822 73.4367C489.671 72.5813 489.944 72.6292 495.437 74.3306C496.559 74.6765 498.659 75.0869 500.105 75.2343C502.291 75.467 502.759 75.2301 502.875 73.8186C502.991 72.3618 503.334 72.208 505.297 72.7121C507.12 73.1847 507.702 73.026 508.15 71.9264C508.96 69.9557 508.392 67.5376 507.058 67.2744C506.428 67.1457 505.596 65.659 505.202 63.9563C504.243 59.8006 502.17 58.3355 500 60.2956C498.709 61.4532 498.153 61.562 497.124 60.8373C496.092 60.1187 496.048 59.7666 496.891 59.0158C498.096 57.9427 496.982 56.2843 495.261 56.5878C494.623 56.7003 494.033 57.2413 493.951 57.7861C493.781 58.9405 484.827 57.9852 482.397 56.5484C481.563 56.0666 480.064 56.0405 479.062 56.4969C477.674 57.1334 477.306 57.0091 477.508 55.9636C477.828 54.3189 472.78 53.9059 467.8 55.1624C466.038 55.6143 464.065 55.6958 463.419 55.3567C462.77 55.0181 460.225 54.5769 457.763 54.3795C455.298 54.1826 452.856 53.7551 452.338 53.4333C451.82 53.109 450.271 53.0437 448.893 53.2866C446.766 53.6616 446.583 53.8912 447.683 54.8244C448.394 55.4265 449.69 55.7949 450.564 55.6409C451.44 55.4864 452.95 56.2087 453.928 57.2488C455.971 59.4252 459.48 59.8406 468.693 59.0021C472.258 58.68 475.433 58.661 475.753 58.9643C476.9 60.0732 481.554 60.7742 484.399 60.2724C485.999 59.9904 487.619 60.1124 488.004 60.5428C488.387 60.9737 489.33 61.1085 490.095 60.8403C491.013 60.5158 491.707 61.0197 492.131 62.3226C493.16 65.4802 491.875 66.189 487.407 64.925C484.961 64.2317 481.013 64.022 477.65 64.4043C469.718 65.3127 462.587 64.9793 460.27 63.5971C459.016 62.8482 456.324 62.6327 452.877 63.0033C449.265 63.3897 447.015 63.1843 446.145 62.3943C445.375 61.6987 443.041 61.3509 440.484 61.5539C438.085 61.7503 431.775 62.005 426.449 62.1154C421.127 62.2356 415.717 62.5366 414.426 62.783C412.841 63.0891 412.001 62.8002 411.841 61.8931C411.654 60.8309 411.027 60.763 408.911 61.565C405.59 62.8301 403.166 63.7292 402.073 64.1031C399.785 64.893 404.795 65.3046 410.287 64.7733Z" fill="#FFCD00"/>
<path fill-rule="evenodd" clip-rule="evenodd" d="M447.695 61.1485C448.326 61.2797 449.29 61.1098 449.837 60.7707C450.384 60.4264 449.867 60.3178 448.688 60.5256C447.512 60.733 447.066 61.0116 447.695 61.1485Z" fill="#FFCD00"/>
<path fill-rule="evenodd" clip-rule="evenodd" d="M351.277 58.569C356.63 56.8443 356.662 54.5444 351.319 55.4652C348.593 55.9352 347.96 55.8203 348.807 55.0047C349.621 54.2244 348.497 54.2146 344.827 54.9631C341.661 55.612 339.227 56.6034 338.443 57.5703C337.742 58.4268 337.222 59.4085 337.283 59.7522C337.464 60.7834 346.863 59.9842 351.277 58.569Z" fill="#FFCD00"/>
<path fill-rule="evenodd" clip-rule="evenodd" d="M362.322 57.3434C366.032 58.2509 368.576 58.098 370.689 56.8274C372.918 55.4884 370.839 54.6826 366.926 55.3725C364.832 55.7416 363.054 55.6608 362.97 55.1853C362.888 54.7175 361.853 54.5029 360.677 54.7102C357.576 55.2571 358.255 56.3392 362.322 57.3434Z" fill="#FFCD00"/>
<path fill-rule="evenodd" clip-rule="evenodd" d="M332.765 59.1898C332.347 59.5674 332.036 60.0432 332.073 60.2499C332.11 60.4593 332.522 60.5598 332.992 60.4769C333.465 60.3935 333.778 59.9172 333.69 59.4185C333.603 58.9222 333.187 58.8144 332.765 59.1898Z" fill="#FFCD00"/>
<path fill-rule="evenodd" clip-rule="evenodd" d="M409.085 56.8233C410.803 55.4757 411.116 53.2435 409.42 54.4325C408.879 54.8104 407.778 55.4869 406.978 55.937C406.046 56.4583 405.868 57.0015 406.484 57.431C407.101 57.8605 408.041 57.6442 409.085 56.8233Z" fill="#FFCD00"/>
<path fill-rule="evenodd" clip-rule="evenodd" d="M372.433 118.872C372.516 119.34 373.355 119.595 374.298 119.428C375.239 119.262 375.943 118.736 375.86 118.268C375.777 117.798 374.936 117.546 373.995 117.712C373.052 117.879 372.35 118.402 372.433 118.872Z" fill="#FFCD00"/>
<path fill-rule="evenodd" clip-rule="evenodd" d="M345.492 118.627C344.815 119.034 344.331 119.767 344.417 120.25C344.609 121.343 345.498 121.203 346.97 119.861C348.358 118.604 347.179 117.615 345.492 118.627Z" fill="#FFCD00"/>
<mask id="mask0_1_119" style="mask-type:luminance" maskUnits="userSpaceOnUse" x="0" y="0" width="517" height="201">
<path fill-rule="evenodd" clip-rule="evenodd" d="M0.701599 88.1082L496.414 0.700636L516.296 113.457L20.5835 200.864L0.701599 88.1082Z" fill="white"/>
</mask>
<g mask="url(#mask0_1_119)">
<path fill-rule="evenodd" clip-rule="evenodd" d="M257.994 133.751C256.177 134.071 255.221 134.6 255.626 135.053C256.001 135.472 257.441 135.618 258.827 135.374C260.212 135.129 261.278 134.542 261.195 134.071C261.112 133.601 259.672 133.455 257.994 133.751Z" fill="#FFCD00"/>
<path fill-rule="evenodd" clip-rule="evenodd" d="M448.319 102.561C447.743 102.918 446.998 103.018 446.664 102.786C446.329 102.547 446.8 102.258 447.708 102.133C448.716 102.003 448.953 102.169 448.319 102.561ZM439.59 103.5C439.119 103.583 438.428 103.305 438.056 102.886C437.681 102.467 437.757 102.054 438.228 101.971C438.7 101.888 439.394 102.165 439.769 102.584C440.142 103.003 440.063 103.417 439.59 103.5ZM403.703 104.525C401.566 104.902 400.196 103.782 401.437 102.676C401.908 102.263 403.022 102.431 403.916 103.057C405.421 104.113 405.404 104.226 403.703 104.525ZM389.645 87.5141C387.329 87.9837 386.615 87.694 387.744 86.7515C388.059 86.4854 389.144 86.4407 390.154 86.6542C391.756 86.99 391.69 87.1002 389.645 87.5141ZM382.409 89.0512C378.891 89.9993 373.392 90.0203 375.571 89.0765C377.454 88.2594 386.22 86.9057 386.309 87.4122C386.367 87.7219 384.61 88.458 382.409 89.0512ZM333.117 122.242C330.441 122.733 327.945 122.787 327.57 122.368C327.195 121.949 327.198 121.527 327.573 121.432C327.947 121.334 329.634 120.866 331.313 120.381C333.116 119.863 335.116 119.883 336.18 120.431C337.805 121.261 337.494 121.447 333.117 122.242ZM299.061 116.872C298.371 117.857 291.911 119.108 272.32 122.053C270.188 122.373 267.602 122.333 266.565 121.97C265.53 121.598 261.394 121.808 257.372 122.426C247.714 123.916 245.935 124.07 244.619 123.516C244.012 123.263 242.944 123.398 242.244 123.812C241.408 124.319 240.892 124.109 240.731 123.199C240.598 122.442 239.91 121.927 239.205 122.051C238.499 122.175 237.841 121.844 237.748 121.314C237.629 120.642 238.866 120.312 241.755 120.237C245.776 120.135 253.757 118.758 263.261 116.53C266.13 115.859 268.863 115.78 270.696 116.322C272.291 116.795 276.727 116.807 280.549 116.346C284.376 115.89 288.015 115.797 288.645 116.137C289.798 116.765 292.627 116.762 297.283 116.127C299.114 115.874 299.612 116.084 299.061 116.872ZM216.698 89.4645C215.109 91.1223 210.892 92.1456 209.961 91.0973C209.629 90.7242 206.584 90.8641 203.195 91.411C199.805 91.9528 196.828 92.2539 196.578 92.0767C196.068 91.7191 200.321 89.6208 201.682 89.5592C202.163 89.5357 206.059 89.1713 210.341 88.7493C217.275 88.0702 217.963 88.1462 216.698 89.4645ZM154.84 100.601C151.42 101.18 148.562 101.308 148.486 100.877C148.41 100.45 149.235 99.9423 150.318 99.7514C151.401 99.5604 152.597 98.9577 152.977 98.4192C153.99 96.9721 168.364 93.4197 168.566 94.5672C168.849 96.1721 161.264 99.5054 154.84 100.601ZM145.325 97.9727C144.383 98.8289 144.423 99.2828 145.552 100.547C147.248 102.441 146.336 102.905 136.234 105.267C132.382 106.165 129.208 106.749 129.174 106.56C129.07 105.968 134.107 102.845 138.153 100.991C140.298 100.005 142.198 98.8304 142.378 98.383C142.559 97.9274 143.551 97.4168 144.586 97.2423C146.105 96.9851 146.244 97.1283 145.325 97.9727ZM209.9 68.9592C211.018 68.7834 211.009 68.9634 209.856 69.9316C209.083 70.5847 208.261 70.9829 208.024 70.8169C207.312 70.3162 208.451 69.1906 209.9 68.9592ZM213.616 67.3948C214.42 67.2531 214.653 66.3993 214.285 64.9345C213.827 63.1073 214.177 62.4754 216.166 61.5145C219.36 59.9839 221.134 60.356 220.956 62.5352C220.853 63.7817 221.32 64.2511 222.627 64.2125C223.627 64.1854 224.662 64.5705 224.928 65.0672C225.567 66.2602 222.721 67.5294 217.183 68.5194C214.709 68.9663 212.621 68.9427 212.537 68.4698C212.454 67.9994 212.936 67.5147 213.616 67.3948ZM240.158 67.3543C242.041 67.0303 242.744 67.0901 241.715 67.482C240.686 67.8739 239.142 68.1382 238.285 68.0682C237.428 67.9981 238.272 67.6787 240.158 67.3543ZM250.826 66.5126L256.763 66.3797L252.419 67.9477C249.212 69.1022 247.685 69.2861 246.587 68.6617C243.879 67.1193 244.818 66.6393 250.826 66.5126ZM261.603 65.1876C263.94 64.7355 266.79 63.4575 268.379 62.1513C271.433 59.6569 274.016 58.8923 275.143 60.1567C275.591 60.6612 277 60.5673 278.687 59.934C281.524 58.8663 282.381 59.4213 280.981 61.4243C280.429 62.2117 280.521 62.6405 281.309 62.9546C281.969 63.2219 282.467 62.6438 282.56 61.5083C282.683 60.0022 283.379 59.5064 286.039 59.0375C289.755 58.3822 290.549 59.412 287.908 61.4658C286.947 62.2083 285.994 63.2105 285.787 63.684C285.582 64.1678 283.904 64.8074 282.062 65.1108C280.221 65.4141 275.144 66.272 270.785 67.014C266.423 67.7539 262.793 68.0261 262.721 67.6126C262.648 67.1991 261.46 66.6571 260.084 66.412C257.768 66.0023 257.884 65.9072 261.603 65.1876ZM291.527 58.667C293.565 57.4415 298.765 56.6605 298.923 57.5573C298.997 57.976 297.763 58.7025 296.181 59.1785L296.187 59.1776C294.61 59.6502 292.598 59.9197 291.722 59.7731C290.199 59.5272 290.19 59.4729 291.527 58.667ZM303.207 63.0401C306.115 61.5787 307.18 61.4496 310.727 62.1351C316.748 63.2905 316.835 64.2052 311.025 65.2297C308.224 65.7236 304.559 65.8128 302.878 65.4351L299.819 64.7407L303.207 63.0401ZM515.3 112.417C514.584 112.298 512.997 111.443 511.772 110.511C510.548 109.586 509.009 108.895 508.352 108.979C507.693 109.068 505.257 108.52 502.939 107.764C500.617 107.007 497.575 106.133 496.177 105.823C494.774 105.513 493.653 104.778 493.68 104.19C493.707 103.604 492.039 102.092 489.97 100.834C485.601 98.1773 485.904 96.1786 490.43 97.8054C492.616 98.5925 493.718 98.5714 494.648 97.7278C496.543 96.0188 495.382 95.1789 491.581 95.5027C489.707 95.6653 487.539 95.4294 486.762 94.9854C484.72 93.8159 483.241 93.8634 475.154 95.3161C471.164 96.0356 467.451 96.3919 466.905 96.1045C466.356 95.8176 463.394 95.9774 460.321 96.4605C457.129 96.9569 453.213 96.9518 451.186 96.4432C447.949 95.6309 447.751 95.4261 448.956 94.1744C451.132 91.9066 449.201 91.7301 444.499 93.777C437.992 96.6006 431.286 96.003 430.511 92.5182C430.437 92.1715 434.306 91.2922 439.112 90.562C445.082 89.6586 447.901 88.9056 448.01 88.1935C448.098 87.621 447.679 87.2953 447.078 87.4572C443.52 88.4522 433.658 88.3019 432.552 87.2393C431.474 86.2061 431.128 86.2404 430.078 87.4782C428.631 89.1856 415.223 92.1681 412.273 91.4412C410.677 91.051 410.837 90.9296 413.178 90.77C414.737 90.663 415.956 90.2507 415.888 89.8657C415.82 89.478 417.338 88.0538 419.258 86.7C423.494 83.7148 424.941 81.6022 423.007 81.229C422.282 81.0879 420.702 81.5583 419.502 82.2789C416.516 84.0551 410.835 84.9635 410.187 83.7668C409.839 83.1246 407.541 83.1487 403.509 83.8411C400.125 84.419 397.311 84.6461 397.259 84.3463C397.113 83.5646 392.334 83.6185 382.258 84.5078C377.437 84.9314 372.88 84.9275 372.134 84.5022C371.386 84.0718 368.595 83.8818 365.936 84.0707C363.279 84.2622 361.238 84.0812 361.404 83.6654C361.97 82.2359 359.466 82.0273 352.613 82.9213C348.833 83.4171 345.398 83.6845 344.979 83.5132C344.555 83.3481 338.84 83.9134 332.269 84.7763C317.374 86.7311 313.351 86.809 313.06 85.1602C312.896 84.2298 313.901 83.7035 316.883 83.1616C322.137 82.2007 324.229 79.7559 319.24 80.4011C307.058 81.9815 305.825 82.2709 306.484 83.3645C306.975 84.184 306.322 84.5788 303.939 84.9217C300.75 85.3801 294.561 85.2164 296.255 84.7177C296.745 84.5755 297.791 83.7541 298.583 82.8976C299.886 81.4875 299.245 81.4806 291.896 82.8163C287.425 83.634 283.16 84.2422 282.419 84.1702C276.512 83.6104 274.29 83.9169 273.539 85.4003C272.86 86.7351 271.686 87.0249 264.907 87.5139C260.591 87.8327 254.677 88.1026 251.766 88.123C248.856 88.1378 242.413 88.7941 237.451 89.5758C228.603 90.9735 224.837 90.7021 221.612 88.4435C219.691 87.1008 220.928 86.4562 227.118 85.5754C232.869 84.7612 237.49 82.4834 237.922 80.2487C238.27 78.4606 234.386 79.2227 232.988 81.2201C232.133 82.4474 230.711 82.8473 225.991 83.2052C222.736 83.4515 218.149 84.039 215.808 84.5157C212.085 85.2656 211.707 85.1936 212.84 83.9706C213.552 83.1921 214.101 82.3573 214.057 82.1092C214.014 81.8637 210.747 82.4397 206.795 83.3897C199.998 85.0252 199.505 85.0294 197.525 83.38C195.643 81.8199 195.347 81.8028 194.599 83.1978C193.951 84.418 192.37 84.9605 187.315 85.6974C177.929 87.0565 174.035 86.8557 174.184 85.0095C174.283 83.8009 173.706 83.6308 171.229 84.1342C169.538 84.4749 167.809 85.049 167.39 85.4106C166.969 85.7727 165.457 86.5484 164.027 87.1283C161.152 88.2934 159.127 87.2062 161.848 85.9562C164.143 84.9014 162.928 83.7539 159.431 83.6724C157.697 83.6343 156.848 83.2484 157.256 82.6862C157.627 82.165 159.539 81.7799 161.63 81.8004C163.975 81.8211 165.614 81.4416 166.084 80.7697C166.609 80.0245 167.711 79.8541 169.788 80.2073C173.166 80.7762 187.902 78.4017 196.621 75.8809C202.357 74.2247 206.138 74.2268 207.885 75.8935C208.394 76.3818 208.887 76.1537 209.264 75.2666C209.773 74.0468 211.349 73.7956 221.806 73.2229C233.94 72.565 235.784 72.7302 233.999 74.3213C233.276 74.9683 233.578 75.2589 235.095 75.3857C236.244 75.4789 237.248 75.158 237.327 74.6671C237.403 74.1741 237.847 73.9279 238.317 74.1168C240.188 74.8581 257.499 72.0988 258.527 70.8863C259.337 69.9308 259.604 69.9663 259.798 71.0646C259.933 71.8296 260.376 72.3963 260.787 72.3238C261.196 72.2518 265.029 72.1861 269.303 72.1813C273.578 72.171 280.036 71.5732 283.656 70.855C287.277 70.1419 290.606 69.696 291.054 69.8648C291.505 70.0358 298.75 69.8617 307.158 69.4769C318.717 68.9443 322.987 68.4473 324.683 67.4447C326.337 66.4601 326.973 66.3748 327.102 67.1061C327.526 69.4695 347.071 68.6027 348.793 66.1432C349.517 65.1096 347.485 64.101 345.407 64.4674C344.174 64.6847 341.917 64.7124 340.395 64.5303C331.394 63.4447 329.012 63.417 323.556 64.3631C318.118 65.3059 317.47 65.2391 316.958 63.6825C316.07 60.9744 319.738 58.8488 323.418 59.9399C326 60.7052 326.456 60.6194 328.136 59.0413C329.298 57.9492 330.936 57.3139 332.515 57.35C333.898 57.3832 335.188 57.0173 335.38 56.5383C335.881 55.2854 333.062 54.6047 328.013 54.757C325.595 54.8314 323.263 54.7498 322.828 54.5813C321.198 53.936 314.011 55.2059 312.179 56.4669C310.608 57.5461 310.077 57.5411 309.193 56.4579C308.433 55.5314 307.523 55.404 306.112 56.0338C304.89 56.5824 304.044 56.561 303.942 55.9795C303.85 55.46 302.503 55.2552 300.947 55.5296C299.394 55.8034 297.681 55.719 297.144 55.3448C296.606 54.968 291.513 55.269 285.824 56.011C280.139 56.7577 273.104 57.3932 270.197 57.4235C262.747 57.5034 258.188 58.4431 256.51 60.2472C254.333 62.5871 250.37 63.0566 249.461 61.0744C248.715 59.4553 246.714 59.1579 246.145 60.5852C245.983 60.9949 244.75 61.4707 243.409 61.646C242.068 61.8212 239.516 62.1592 237.737 62.3955C235.572 62.6894 234.431 62.427 234.287 61.6103C234.115 60.6386 233.058 60.6546 229.221 61.6855L224.374 62.9878L226.131 60.9672C227.951 58.8663 227.295 56.7303 225.218 57.9811C224.568 58.3729 223.366 58.3104 222.55 57.8439C221.737 57.3852 220.887 57.2525 220.673 57.5621C220.456 57.8722 218.999 57.8332 217.437 57.4825C215.525 57.0496 213.795 57.2267 212.136 58.0362C210.473 58.8517 209.42 58.9573 208.899 58.3724C208.371 57.7807 207.132 57.9192 204.96 58.8219C203.219 59.5445 197.268 60.9615 191.74 61.9656C181.831 63.774 181.679 63.7716 181.34 61.8488C180.939 59.5745 178.774 59.5965 177.975 61.8825C177.285 63.8641 175.078 63.0569 175.255 60.8859C175.407 59.0017 174.212 58.8261 165.919 59.5209C158.973 60.1008 139.496 63.4391 133.772 65.0267C131.459 65.6744 126.143 67.0807 121.963 68.1589C117.418 69.3281 113.884 70.7026 113.182 71.5699C112.4 72.5338 109.061 73.6795 103.223 74.9833C98.3952 76.0585 94.1311 77.386 93.7416 77.9423C93.3589 78.4921 91.578 79.1978 89.7896 79.5132C87.4662 79.9228 86.5989 80.4595 86.7607 81.377C86.9885 82.6692 86.171 83.1411 83.3561 83.347C82.5166 83.407 81.915 83.9395 82.0193 84.5313C82.1278 85.1464 81.5994 85.0211 80.7844 84.2374C79.4247 82.9343 79.0512 82.9922 72.4028 85.5315C68.5727 86.9929 64.8526 88.2165 64.132 88.2556C62.2864 88.3519 57.051 90.4875 51.4324 93.4421C48.8027 94.8198 45.6344 96.1352 44.3939 96.354C43.1534 96.5727 41.7562 97.2934 41.2926 97.9587C40.8239 98.6249 40.3889 98.8482 40.3205 98.4605C40.2527 98.0755 39.6392 98.4048 38.9541 99.1891C38.1103 100.161 37.8582 100.243 38.166 99.4347C38.4849 98.6137 37.9567 98.3684 36.4293 98.6377C35.119 98.8688 34.3229 99.5074 34.4492 100.223C34.7887 102.149 30.5083 104.124 28.3263 103.054C25.5076 101.667 24.2201 102.299 24.6703 104.852L25.0763 107.155L22.9989 105.589C20.2827 103.545 18.6936 103.902 17.4292 106.856C16.86 108.177 15.5203 109.647 14.451 110.126C12.228 111.12 12.2154 112.772 14.4165 114.313C15.2473 114.9 16.0278 115.956 16.1522 116.661C16.2771 117.37 17.2254 118.063 18.2544 118.201C19.2891 118.341 19.9913 118.652 19.8198 118.903C19.4128 119.481 14.6701 118.26 14.5439 117.545C14.4486 117.004 9.06484 118.268 7.12173 119.293C5.96037 119.9 6.15007 122.185 7.40204 122.681C7.86674 122.868 8.69873 124.035 9.25662 125.28C9.80843 126.52 11.3648 128.562 12.7144 129.808C14.064 131.054 15.4621 132.953 15.8195 134.028C16.4508 135.931 17.6558 136.659 20.8544 137.057C22.0652 137.214 22.5982 138.196 23.145 141.298C24.0473 146.415 28.1201 155.7 30.1929 157.36C31.0619 158.057 32.8968 158.429 34.2666 158.187C37.2024 157.669 40.3122 158.531 40.5578 159.924C40.653 160.464 40.0811 161.905 39.2827 163.12L37.8327 165.339L40.447 168.484C41.8905 170.217 43.6464 171.546 44.3582 171.442C46.5882 171.108 49.3106 172.991 48.9922 174.646C48.5943 176.696 50.5954 178.267 53.048 177.835C54.1412 177.642 55.3224 177.812 55.6803 178.21C56.3815 178.998 61.1011 177.761 64.987 175.77C66.3267 175.086 69.5962 173.936 72.2574 173.206C77.1606 171.862 79.9237 169.941 82.9899 165.75C83.9263 164.471 85.1185 163.344 85.6406 163.252C86.1674 163.156 87.6427 162.259 88.9237 161.258C90.3517 160.137 94.0436 158.815 98.4758 157.836C102.451 156.957 108.52 155.335 111.97 154.236C115.419 153.138 124.641 150.491 132.461 148.355C145.755 144.727 146.801 144.551 148.547 145.644C150.247 146.714 151.505 146.538 162.751 143.651C169.534 141.906 175.468 140.061 175.932 139.547C177.421 137.899 180.745 136.82 182.049 137.563C182.78 137.977 184.633 137.813 186.441 137.172C188.161 136.562 192.156 135.234 195.315 134.229C198.471 133.22 201.218 132.163 201.418 131.877C201.619 131.591 202.697 132.176 203.814 133.178C206.086 135.208 209.832 135.011 212.511 132.721C213.807 131.608 214.249 131.53 214.713 132.333C215.029 132.883 215.835 133.239 216.502 133.121C217.169 133.004 217.533 132.441 217.311 131.875C217.011 131.097 218.855 130.537 224.642 129.626C232.172 128.442 234.586 128.259 245.553 128.012C260.266 127.688 263.686 127.346 265.637 126.005C267.198 124.925 267.801 124.87 268.555 125.715C269.349 126.609 269.816 126.537 271.403 125.287C272.478 124.447 274.158 123.914 275.281 124.068C277.1 124.307 277.155 124.436 275.989 125.651C274.89 126.796 275.438 126.998 279.937 127.097C282.806 127.164 290.873 126.992 297.868 126.72C304.866 126.446 313.157 126.164 316.303 126.1C319.448 126.028 327.714 125.591 334.677 125.12C341.636 124.647 347.933 124.357 348.663 124.476C349.397 124.589 352.967 124.554 356.596 124.386C360.226 124.225 366.155 123.966 369.771 123.816C373.385 123.669 379.494 123.362 383.337 123.132C389.897 122.74 395.738 122.616 406.215 122.658C408.645 122.672 413.558 122.363 417.131 121.967C426.138 120.987 421.968 120.4 407.625 120.635C401.33 120.735 390.425 120.867 383.39 120.927C372.254 121.017 345.082 121.926 343.12 122.272C342.738 122.339 341.822 121.515 341.084 120.441C339.937 118.772 339.965 118.309 341.279 117.283C342.123 116.615 343.957 115.79 345.351 115.441C347.013 115.028 347.677 114.458 347.276 113.787C346.488 112.477 355.735 111.376 358.888 112.406C360.325 112.877 365.613 112.313 374.856 110.702C382.453 109.373 389.433 108.531 390.366 108.822C391.3 109.113 393.896 109.191 396.136 108.988C401.434 108.523 409.915 108.52 418.82 108.985C422.745 109.194 427.784 109.211 430.022 109.027C432.257 108.844 434.495 108.854 434.998 109.061C435.501 109.258 439.816 109.334 444.587 109.22C454.624 108.99 459.806 109.102 464.853 109.649C468.861 110.088 474.804 110.284 479.58 110.138C481.305 110.084 483.633 110.636 484.748 111.356C486.028 112.193 488.009 112.457 490.109 112.076C495.159 111.169 499.279 111.189 503.305 112.123C509.116 113.481 515.66 114.096 516.15 113.339C516.399 112.951 516.018 112.541 515.3 112.417Z" fill="#FFCD00"/>
</g>
<path fill-rule="evenodd" clip-rule="evenodd" d="M432.966 121.611C432.183 121.296 429.954 121.06 428.017 121.09C425.698 121.118 424.984 121.331 425.918 121.702C426.701 122.017 428.928 122.256 430.868 122.226C433.187 122.195 433.903 121.981 432.966 121.611Z" fill="#FFCD00"/>
<path fill-rule="evenodd" clip-rule="evenodd" d="M490.266 89.7842C487.225 90.8055 486.819 91.1782 487.927 91.9289C488.667 92.4272 491.014 92.661 493.147 92.4447C496.172 92.1298 497.03 91.7335 497.06 90.6037C497.112 88.6172 494.638 88.3233 490.266 89.7842Z" fill="#FFCD00"/>
<path fill-rule="evenodd" clip-rule="evenodd" d="M462.853 123.826C460.981 123.957 460.25 124.101 461.232 124.152C462.211 124.203 463.444 124.532 463.967 124.882C464.492 125.232 465.9 125.344 467.098 125.111C470.363 124.495 467.156 123.523 462.853 123.826Z" fill="#FFCD00"/>
<path fill-rule="evenodd" clip-rule="evenodd" d="M505.004 103.094C505.341 103.328 506.08 103.227 506.657 102.872C507.294 102.477 507.053 102.306 506.049 102.446C505.141 102.566 504.67 102.857 505.004 103.094Z" fill="#FFCD00"/>
<path fill-rule="evenodd" clip-rule="evenodd" d="M480.4 124.306C477.043 124.477 476.813 124.594 478.387 125.407C479.359 125.901 481.49 126.093 483.118 125.82C487.128 125.15 485.181 124.068 480.4 124.306Z" fill="#FFCD00"/>
<path fill-rule="evenodd" clip-rule="evenodd" d="M489.562 117.649C489.149 117.721 488.946 118.549 489.112 119.492C489.402 121.138 491.196 121.517 492.163 120.14C492.697 119.379 490.684 117.451 489.562 117.649Z" fill="#FFCD00"/>
<path fill-rule="evenodd" clip-rule="evenodd" d="M472.159 116.304C471.009 116.507 470.135 117.05 470.216 117.51C470.383 118.459 474.711 118.975 475.312 118.12C476.082 117.017 474.211 115.943 472.159 116.304Z" fill="#FFCD00"/>
<path fill-rule="evenodd" clip-rule="evenodd" d="M448.592 122.317C446.376 122.294 444.615 122.57 444.679 122.932C444.841 123.852 446.652 124.1 451.577 123.877C457.002 123.634 454.601 122.382 448.592 122.317Z" fill="#FFCD00"/>
<path fill-rule="evenodd" clip-rule="evenodd" d="M442.828 122.438C442.049 122.165 440.499 121.818 439.383 121.686C438.266 121.545 437.416 121.804 437.494 122.249C437.642 123.086 440.684 123.608 442.958 123.175C444.096 122.963 444.081 122.878 442.828 122.438Z" fill="#FFCD00"/>
<path fill-rule="evenodd" clip-rule="evenodd" d="M510.166 98.5463C509.209 99.4027 510.448 101.337 512.169 101.671C513.713 101.977 515.015 101.11 514.807 99.9291C514.615 98.8385 511.03 97.7759 510.166 98.5463Z" fill="#FFCD00"/>
</svg>
