<!DOCTYPE svg PUBLIC "-//W3C//DTD SVG 1.1//EN" "http://www.w3.org/Graphics/SVG/1.1/DTD/svg11.dtd">
<!-- Uploaded to: SVG Repo, www.svgrepo.com, Transformed by: SVG Repo Mixer Tools -->
<svg width="800px" height="800px" viewBox="0 0 24 24" fill="none" xmlns="http://www.w3.org/2000/svg" stroke="#ffffffa6">
<g id="SVGRepo_bgCarrier" stroke-width="0"/>
<g id="SVGRepo_tracerCarrier" stroke-linecap="round" stroke-linejoin="round"/>
<g id="SVGRepo_iconCarrier"> <path fill-rule="evenodd" clip-rule="evenodd" d="M3.75 6.75L4.5 6H20.25L21 6.75V10.7812H20.25C19.5769 10.7812 19.0312 11.3269 19.0312 12C19.0312 12.6731 19.5769 13.2188 20.25 13.2188H21V17.25L20.25 18L4.5 18L3.75 17.25V13.2188H4.5C5.1731 13.2188 5.71875 12.6731 5.71875 12C5.71875 11.3269 5.1731 10.7812 4.5 10.7812H3.75V6.75ZM5.25 7.5V9.38602C6.38677 9.71157 7.21875 10.7586 7.21875 12C7.21875 13.2414 6.38677 14.2884 5.25 14.614V16.5L9 16.5L9 7.5H5.25ZM10.5 7.5V16.5L19.5 16.5V14.614C18.3632 14.2884 17.5312 13.2414 17.5312 12C17.5312 10.7586 18.3632 9.71157 19.5 9.38602V7.5H10.5Z" fill="#ffffffa6"/> </g>
</svg>